<?xml version="1.0" encoding="utf-8"?><svg xmlns="http://www.w3.org/2000/svg" xmlns:xlink="http://www.w3.org/1999/xlink"><symbol viewBox="0 0 19 15" id="arrow" xmlns="http://www.w3.org/2000/svg"><path fill-rule="evenodd" d="M19 7.299v.402l.015.014L19 7.73V8h-.27l-7.015 7.015-.73-.73L17.27 8H0V7h17.27L10.985.715l.73-.73L18.73 7H19v.27l.015.015-.015.014z"/></symbol><symbol viewBox="0 0 19 15" id="arrow-left" xmlns="http://www.w3.org/2000/svg"><path fill-rule="evenodd" d="M19 8H1.73l6.285 6.285-.73.73L.27 8H0v-.27l-.015-.015L0 7.701v-.402l-.015-.014L0 7.27V7h.27L7.285-.015l.73.73L1.73 7H19v1z"/></symbol><symbol viewBox="0 0 19 15" id="arrow-view" xmlns="http://www.w3.org/2000/svg"><path fill-rule="evenodd" d="M19 7.299v.402l.015.014L19 7.73V8h-.27l-7.015 7.015-.73-.73L17.27 8H0V7h17.27L10.985.715l.73-.73L18.73 7H19v.27l.015.015-.015.014z"/></symbol><symbol viewBox="0 0 10 21.5" id="fb" xmlns="http://www.w3.org/2000/svg"><path d="M10 7l-.4 3.7h-3v10.7H2.2V10.7H0V7h2.2V4.8C2.2 1.8 3.5 0 7 0h3v3.7H8.1c-1.4 0-1.5.5-1.5 1.5V7H10z"/></symbol><symbol viewBox="0 0 37.7 37.7" id="google" xmlns="http://www.w3.org/2000/svg"><path d="M24.1 0L21 1.8h-3.1c2.2 1.4 3.4 4.1 3.4 6.7 0 6-5.1 6.5-5.1 9.5 0 2.9 6.8 4.1 6.8 10.4 0 2.6-1.2 4.7-3.2 6.4-2.6 2.2-6.2 3-9.5 3C6.1 37.7 0 35.9 0 30.6c0-1.1.4-2.1.8-3.1 2-4.1 8.3-5.1 12.4-5.2-.7-1-1.5-2.1-1.5-3.4 0-.7.3-1.2.5-1.9-.5.1-1.1.1-1.6.1-4.4 0-8.2-3.2-8.2-7.8 0-4.3 3.3-8 7.5-8.9 1.4-.2 2.8-.4 4.3-.4h9.9zm-9.5 23.8h-1.1c-3.7 0-9.2 1.2-9.2 5.9 0 4.4 4.9 6 8.5 6 3.4 0 7.1-1.4 7.1-5.3 0-3.3-3-5-5.3-6.6zM11.1 1.6c-3 0-4.4 2.6-4.4 5.3 0 3.4 2.3 8.8 6.3 8.8 3.1 0 4.2-2.2 4.2-5-.1-3.4-1.9-9.1-6.1-9.1zm26.6 7.1h-5.8v5.8H29V8.7h-5.8V5.8H29V0h2.9v5.8h5.8v2.9z"/></symbol><symbol viewBox="0 0 24 22" id="heart" xmlns="http://www.w3.org/2000/svg"><path fill-rule="evenodd" d="M22.207 11.297L11.981 22 1.756 11.297a6.095 6.095 0 010-8.562 5.956 5.956 0 018.48 0l1.745 2.14 1.746-2.14a5.956 5.956 0 018.48 0 6.095 6.095 0 010 8.562zm-6.489-8.212L11.977 6.39 9.236 3.085C7.8 1.62 4.072 1 2.036 4.085.906 5.797.6 7.925 2.036 9.39l9.941 10.611L21.918 9.39a3.805 3.805 0 000-5.305c-1.436-1.465-4.764-2.465-6.2-1z"/></symbol><symbol viewBox="0 0 38.6 36.9" id="linked" xmlns="http://www.w3.org/2000/svg"><path d="M4.6 8.6C1.8 8.6 0 6.7 0 4.3S1.9 0 4.7 0c2.8 0 4.6 1.9 4.6 4.3S7.5 8.6 4.6 8.6zm4.2 28.3H.5V12h8.3v24.9zm29.8 0h-8.3V23.6c0-3.3-1.2-5.6-4.2-5.6-2.3 0-3.6 1.5-4.2 3-.2.6-.3 1.3-.3 2v13.9h-8.3c.1-22.5 0-24.9 0-24.9h8.3v3.6h-.1c1.1-1.7 3-4.2 7.5-4.2 5.4 0 9.5 3.6 9.5 11.2v14.3z"/></symbol><symbol viewBox="0 0 45 60" id="marker" xmlns="http://www.w3.org/2000/svg"><path fill-rule="evenodd" d="M22.5 60S0 34.925 0 22.5 10.075 0 22.5 0C34.926 0 45 10.075 45 22.5S22.5 60 22.5 60zm0-52.5c-8.284 0-15 6.716-15 15 0 8.283 6.716 15 15 15 8.284 0 15-6.717 15-15 0-8.284-6.716-15-15-15z"/></symbol><symbol viewBox="0 0 39.6 32.1" id="twitter" xmlns="http://www.w3.org/2000/svg"><path d="M35.5 8v1.1c0 10.7-8.2 23.1-23.1 23.1-4.6 0-8.9-1.3-12.5-3.6.7.1 1.3.1 2 .1 3.8 0 7.3-1.3 10.1-3.5-3.6-.1-6.6-2.4-7.6-5.6.5.1 1 .1 1.5.1.7 0 1.5-.1 2.1-.3-3.7-.8-6.5-4-6.5-8v-.1c1.1.6 2.3 1 3.7 1C3 10.8 1.6 8.4 1.6 5.5c0-1.5.4-2.9 1.1-4.1 4 4.9 10 8.1 16.7 8.5-.1-.6-.2-1.2-.2-1.9 0-4.5 3.6-8.1 8.1-8.1 2.3 0 4.4 1 5.9 2.6 1.8-.4 3.6-1 5.1-2-.6 1.9-1.9 3.5-3.6 4.5 1.6-.2 3.2-.6 4.7-1.3-.9 1.7-2.3 3.2-3.9 4.3z"/></symbol><symbol viewBox="0 0 24 24" id="youtube" xmlns="http://www.w3.org/2000/svg"><path d="M4.652 0h1.44l.988 3.702L7.996 0H9.45L7.785 5.505v3.757H6.354V5.505L4.652 0zm6.594 2.373c-1.119 0-1.861.74-1.861 1.835v3.349c0 1.204.629 1.831 1.861 1.831 1.022 0 1.826-.683 1.826-1.831V4.208c0-1.069-.797-1.835-1.826-1.835zm.531 5.127c0 .372-.19.646-.532.646-.351 0-.554-.287-.554-.646V4.321c0-.374.172-.651.529-.651.39 0 .557.269.557.651V7.5zm4.729-5.07v5.186c-.155.194-.5.512-.747.512-.271 0-.338-.186-.338-.46V2.43h-1.27v5.71c0 .675.206 1.22.887 1.22.384 0 .918-.2 1.468-.853v.754h1.27V2.43h-1.27zm2.203 13.858c-.448 0-.541.315-.541.763v.659h1.069v-.66c.001-.44-.092-.762-.528-.762zm-4.703.04a.927.927 0 00-.25.198v4.055c.099.106.194.182.287.229.197.1.485.107.619-.067.07-.092.105-.241.105-.449v-3.359c0-.22-.043-.386-.129-.5-.147-.193-.42-.214-.632-.107zm4.827-5.195c-2.604-.177-11.066-.177-13.666 0C2.353 11.325 2.021 13.025 2 17.5c.021 4.467.35 6.175 3.167 6.367 2.6.177 11.062.177 13.666 0 2.814-.192 3.146-1.893 3.167-6.367-.021-4.467-.35-6.175-3.167-6.367zM6.509 21.819H5.146v-7.54h-1.41v-1.28h4.182v1.28h-1.41v7.54zm4.846 0h-1.21v-.718a2.645 2.645 0 01-.696.605c-.652.374-1.547.365-1.547-.955v-5.438h1.209v4.988c0 .262.063.438.322.438.236 0 .564-.303.711-.487v-4.939h1.21v6.506zm4.657-1.348c0 .805-.301 1.431-1.106 1.431-.443 0-.812-.162-1.149-.583v.5h-1.221v-8.82h1.221v2.84c.273-.333.644-.608 1.076-.608.886 0 1.18.749 1.18 1.631v3.609zm4.471-1.752h-2.314v1.228c0 .488.042.91.528.91.511 0 .541-.344.541-.91v-.452h1.245v.489c0 1.253-.538 2.013-1.813 2.013-1.155 0-1.746-.842-1.746-2.013v-2.921c0-1.129.746-1.914 1.837-1.914 1.161 0 1.721.738 1.721 1.914v1.656z"/></symbol></svg>