<?xml version="1.0" encoding="utf-8"?><svg xmlns="http://www.w3.org/2000/svg" xmlns:xlink="http://www.w3.org/1999/xlink"><symbol viewBox="0 0 19 15" id="arrow" xmlns="http://www.w3.org/2000/svg"><path fill-rule="evenodd" d="M19 7.299v.402l.015.014L19 7.73V8h-.27l-7.015 7.015-.73-.73L17.27 8H0V7h17.27L10.985.715l.73-.73L18.73 7H19v.27l.015.015-.015.014z"/></symbol><symbol viewBox="0 0 19 15" id="arrow-left" xmlns="http://www.w3.org/2000/svg"><path fill-rule="evenodd" d="M19 8H1.73l6.285 6.285-.73.73L.27 8H0v-.27l-.015-.015L0 7.701v-.402l-.015-.014L0 7.27V7h.27L7.285-.015l.73.73L1.73 7H19v1z"/></symbol><symbol viewBox="0 0 19 15" id="arrow-view" xmlns="http://www.w3.org/2000/svg"><path fill-rule="evenodd" d="M19 7.299v.402l.015.014L19 7.73V8h-.27l-7.015 7.015-.73-.73L17.27 8H0V7h17.27L10.985.715l.73-.73L18.73 7H19v.27l.015.015-.015.014z"/></symbol><symbol viewBox="0 0 10 21.5" id="fb" xmlns="http://www.w3.org/2000/svg"><path d="M10 7l-.4 3.7h-3v10.7H2.2V10.7H0V7h2.2V4.8C2.2 1.8 3.5 0 7 0h3v3.7H8.1c-1.4 0-1.5.5-1.5 1.5V7H10z"/></symbol><symbol viewBox="0 0 37.7 37.7" id="google" xmlns="http://www.w3.org/2000/svg"><path d="M24.1 0L21 1.8h-3.1c2.2 1.4 3.4 4.1 3.4 6.7 0 6-5.1 6.5-5.1 9.5 0 2.9 6.8 4.1 6.8 10.4 0 2.6-1.2 4.7-3.2 6.4-2.6 2.2-6.2 3-9.5 3C6.1 37.7 0 35.9 0 30.6c0-1.1.4-2.1.8-3.1 2-4.1 8.3-5.1 12.4-5.2-.7-1-1.5-2.1-1.5-3.4 0-.7.3-1.2.5-1.9-.5.1-1.1.1-1.6.1-4.4 0-8.2-3.2-8.2-7.8 0-4.3 3.3-8 7.5-8.9 1.4-.2 2.8-.4 4.3-.4h9.9zm-9.5 23.8h-1.1c-3.7 0-9.2 1.2-9.2 5.9 0 4.4 4.9 6 8.5 6 3.4 0 7.1-1.4 7.1-5.3 0-3.3-3-5-5.3-6.6zM11.1 1.6c-3 0-4.4 2.6-4.4 5.3 0 3.4 2.3 8.8 6.3 8.8 3.1 0 4.2-2.2 4.2-5-.1-3.4-1.9-9.1-6.1-9.1zm26.6 7.1h-5.8v5.8H29V8.7h-5.8V5.8H29V0h2.9v5.8h5.8v2.9z"/></symbol><symbol viewBox="0 0 24 22" id="heart" xmlns="http://www.w3.org/2000/svg"><path fill-rule="evenodd" d="M22.207 11.297L11.981 22 1.756 11.297a6.095 6.095 0 010-8.562 5.956 5.956 0 018.48 0l1.745 2.14 1.746-2.14a5.956 5.956 0 018.48 0 6.095 6.095 0 010 8.562zm-6.489-8.212L11.977 6.39 9.236 3.085C7.8 1.62 4.072 1 2.036 4.085.906 5.797.6 7.925 2.036 9.39l9.941 10.611L21.918 9.39a3.805 3.805 0 000-5.305c-1.436-1.465-4.764-2.465-6.2-1z"/></symbol><symbol viewBox="0 0 448 512" id="instagram" xmlns="http://www.w3.org/2000/svg"><path d="M224.1 141c-63.6 0-114.9 51.3-114.9 114.9s51.3 114.9 114.9 114.9S339 319.5 339 255.9 287.7 141 224.1 141zm0 189.6c-41.1 0-74.7-33.5-74.7-74.7s33.5-74.7 74.7-74.7 74.7 33.5 74.7 74.7-33.6 74.7-74.7 74.7zm146.4-194.3c0 14.9-12 26.8-26.8 26.8-14.9 0-26.8-12-26.8-26.8s12-26.8 26.8-26.8 26.8 12 26.8 26.8zm76.1 27.2c-1.7-35.9-9.9-67.7-36.2-93.9-26.2-26.2-58-34.4-93.9-36.2-37-2.1-147.9-2.1-184.9 0-35.8 1.7-67.6 9.9-93.9 36.1s-34.4 58-36.2 93.9c-2.1 37-2.1 147.9 0 184.9 1.7 35.9 9.9 67.7 36.2 93.9s58 34.4 93.9 36.2c37 2.1 147.9 2.1 184.9 0 35.9-1.7 67.7-9.9 93.9-36.2 26.2-26.2 34.4-58 36.2-93.9 2.1-37 2.1-147.8 0-184.8zM398.8 388c-7.8 19.6-22.9 34.7-42.6 42.6-29.5 11.7-99.5 9-132.1 9s-102.7 2.6-132.1-9c-19.6-7.8-34.7-22.9-42.6-42.6-11.7-29.5-9-99.5-9-132.1s-2.6-102.7 9-132.1c7.8-19.6 22.9-34.7 42.6-42.6 29.5-11.7 99.5-9 132.1-9s102.7-2.6 132.1 9c19.6 7.8 34.7 22.9 42.6 42.6 11.7 29.5 9 99.5 9 132.1s2.7 102.7-9 132.1z"/></symbol><symbol viewBox="0 0 38.6 36.9" id="linked" xmlns="http://www.w3.org/2000/svg"><path d="M4.6 8.6C1.8 8.6 0 6.7 0 4.3S1.9 0 4.7 0c2.8 0 4.6 1.9 4.6 4.3S7.5 8.6 4.6 8.6zm4.2 28.3H.5V12h8.3v24.9zm29.8 0h-8.3V23.6c0-3.3-1.2-5.6-4.2-5.6-2.3 0-3.6 1.5-4.2 3-.2.6-.3 1.3-.3 2v13.9h-8.3c.1-22.5 0-24.9 0-24.9h8.3v3.6h-.1c1.1-1.7 3-4.2 7.5-4.2 5.4 0 9.5 3.6 9.5 11.2v14.3z"/></symbol><symbol viewBox="0 0 45 60" id="marker" xmlns="http://www.w3.org/2000/svg"><path fill-rule="evenodd" d="M22.5 60S0 34.925 0 22.5 10.075 0 22.5 0C34.926 0 45 10.075 45 22.5S22.5 60 22.5 60zm0-52.5c-8.284 0-15 6.716-15 15 0 8.283 6.716 15 15 15 8.284 0 15-6.717 15-15 0-8.284-6.716-15-15-15z"/></symbol><symbol viewBox="0 0 448 512" id="play" xmlns="http://www.w3.org/2000/svg"><path d="M424.4 214.7L72.4 6.6C43.8-10.3 0 6.1 0 47.9V464c0 37.5 40.7 60.1 72.4 41.3l352-208c31.4-18.5 31.5-64.1 0-82.6z"/></symbol><symbol viewBox="0 0 58.752 58.752" id="play-button" xmlns="http://www.w3.org/2000/svg"><path d="M52.524 23.925L12.507.824c-1.907-1.1-4.376-1.097-6.276 0a6.294 6.294 0 00-3.143 5.44v46.205a6.29 6.29 0 003.131 5.435 6.263 6.263 0 006.29.005l40.017-23.103a6.3 6.3 0 003.138-5.439 6.315 6.315 0 00-3.14-5.442zm-3 5.687L9.504 52.716a.27.27 0 01-.279-.005.28.28 0 01-.137-.242V6.263a.28.28 0 01.421-.243l40.01 23.098a.29.29 0 01.145.249.283.283 0 01-.14.245z"/></symbol><symbol fill-rule="evenodd" clip-rule="evenodd" viewBox="0 0 24 24" id="play-thin" xmlns="http://www.w3.org/2000/svg"><path d="M23 12L1 24V0l22 12zM2 22.315L20.912 12 2 1.685v20.63z"/></symbol><symbol viewBox="0 0 39.6 32.1" id="twitter" xmlns="http://www.w3.org/2000/svg"><path d="M35.5 8v1.1c0 10.7-8.2 23.1-23.1 23.1-4.6 0-8.9-1.3-12.5-3.6.7.1 1.3.1 2 .1 3.8 0 7.3-1.3 10.1-3.5-3.6-.1-6.6-2.4-7.6-5.6.5.1 1 .1 1.5.1.7 0 1.5-.1 2.1-.3-3.7-.8-6.5-4-6.5-8v-.1c1.1.6 2.3 1 3.7 1C3 10.8 1.6 8.4 1.6 5.5c0-1.5.4-2.9 1.1-4.1 4 4.9 10 8.1 16.7 8.5-.1-.6-.2-1.2-.2-1.9 0-4.5 3.6-8.1 8.1-8.1 2.3 0 4.4 1 5.9 2.6 1.8-.4 3.6-1 5.1-2-.6 1.9-1.9 3.5-3.6 4.5 1.6-.2 3.2-.6 4.7-1.3-.9 1.7-2.3 3.2-3.9 4.3z"/></symbol><symbol viewBox="0 0 576 512" id="youtube" xmlns="http://www.w3.org/2000/svg"><path d="M549.655 124.083c-6.281-23.65-24.787-42.276-48.284-48.597C458.781 64 288 64 288 64S117.22 64 74.629 75.486c-23.497 6.322-42.003 24.947-48.284 48.597-11.412 42.867-11.412 132.305-11.412 132.305s0 89.438 11.412 132.305c6.281 23.65 24.787 41.5 48.284 47.821C117.22 448 288 448 288 448s170.78 0 213.371-11.486c23.497-6.321 42.003-24.171 48.284-47.821 11.412-42.867 11.412-132.305 11.412-132.305s0-89.438-11.412-132.305zm-317.51 213.508V175.185l142.739 81.205-142.739 81.201z"/></symbol></svg>