<svg id="full_logo" xmlns="http://www.w3.org/2000/svg" viewBox="0 0 481 242"><path class="cls-1" d="M248.89,97.38l-3.54,79.89L278,178.73l12.62-11.11.93-20.77-9.9-8.67,9.14-7.6.93-21L281,98.82l-32.08-1.43Zm27.41,16.32-.76,17.23-11.42-.51.78-17.23,11.41.51ZM274.86,146l-.78,17.46L262.68,163l.78-17.46,11.41.51Z"/><path class="cls-1" d="M330.13,96.88,303.2,98.06l-7.72,80.4,17.35-.76.83-14.91,13.24-.58L329.27,177l17.35-.76L330.13,96.88Zm-5.82,50.35-9.81.42,2.58-35,1.94-.07,5.28,34.64Z"/><path class="cls-1" d="M397.68,110.26,386.26,97.94,353.64,96,349,175.88l32.62,1.89,12.76-10.94,3.28-56.57Zm-16.86,2.46-2.88,49.74-11.41-.67,2.88-49.72,11.41.65Z"/><polygon class="cls-1" points="467.9 98.38 408.63 98.38 408.63 129.3 429.45 129.3 429.45 119.53 445.79 119.53 411.83 210.52 437.14 210.52 467.9 119.53 467.9 98.38 467.9 98.38"/><path class="cls-1" d="M254,193.52a7.08,7.08,0,0,1,3.57.86,6.52,6.52,0,0,1,2.42,2.43,6.22,6.22,0,0,1,.77,2.2,16.76,16.76,0,0,1,.18,2.53v2.1a9.36,9.36,0,0,1-.43,2.88,6.52,6.52,0,0,1-1.27,2.3,5.77,5.77,0,0,1-2.07,1.51,7,7,0,0,1-2.85.54,5,5,0,0,1-1.68-.28,9.05,9.05,0,0,1-1.43-.64,7.74,7.74,0,0,1-1.09-.72q-.44-.36-.64-.56v8.19h-2.83V198a7.18,7.18,0,0,0-.76-3.26l2.6-1.22a9,9,0,0,1,.46.92,6.2,6.2,0,0,1,.33,1h.2a6.18,6.18,0,0,1,1.94-1.38,5.93,5.93,0,0,1,2.57-.56Zm-.07,2.43a5.47,5.47,0,0,0-2.68.61,6.4,6.4,0,0,0-1.76,1.37v7.93a8.14,8.14,0,0,0,2.58,2,5.6,5.6,0,0,0,2.25.59,3.88,3.88,0,0,0,1.81-.38,3.14,3.14,0,0,0,1.17-1,4.24,4.24,0,0,0,.62-1.53,9.3,9.3,0,0,0,.18-1.89v-2.07a11.7,11.7,0,0,0-.15-1.89,5.12,5.12,0,0,0-.41-1.43,3.64,3.64,0,0,0-1.51-1.64,4.09,4.09,0,0,0-2.11-.62Z"/><path class="cls-1" d="M267.29,195.59a4.9,4.9,0,0,1,1.46-1.53,3.64,3.64,0,0,1,2-.54,6.13,6.13,0,0,1,2.73.72l-1,2.63a4.14,4.14,0,0,0-1.88-.53,2.56,2.56,0,0,0-1.5.44,3.4,3.4,0,0,0-1.05,1.2,6.15,6.15,0,0,0-.61,1.79,11.87,11.87,0,0,0-.2,2.22v8.49h-2.83V198a7.18,7.18,0,0,0-.76-3.26l2.6-1.22a8.92,8.92,0,0,1,.48,1,4.94,4.94,0,0,1,.31,1.1Z"/><path class="cls-1" d="M288.35,202.2v-.66a5.94,5.94,0,0,0-1.25-3.91,4.52,4.52,0,0,0-1.64-1.23,6.07,6.07,0,0,0-4.47,0,4.43,4.43,0,0,0-1.61,1.17,6,6,0,0,0-1.32,4v.76a10.56,10.56,0,0,0,.3,2.57,5,5,0,0,0,1,2,3.88,3.88,0,0,0,1.53,1.12,5.89,5.89,0,0,0,2.29.39,5.66,5.66,0,0,0,2.14-.36,4.29,4.29,0,0,0,1.51-1,4.56,4.56,0,0,0,1.18-2.14,11,11,0,0,0,.33-2.73Zm.53,6.32a7.24,7.24,0,0,1-2.6,1.79,8.38,8.38,0,0,1-3.12.58,8.25,8.25,0,0,1-3.09-.59,7.55,7.55,0,0,1-2.63-1.78,5.91,5.91,0,0,1-1.63-2.89,15.23,15.23,0,0,1-.38-3.42v-.62a11.7,11.7,0,0,1,.43-3.06,6.75,6.75,0,0,1,1.68-2.7,7.32,7.32,0,0,1,2.57-1.74,8.24,8.24,0,0,1,3.06-.56,8.33,8.33,0,0,1,3,.54,7.36,7.36,0,0,1,2.55,1.69,7.55,7.55,0,0,1,1.71,2.63,8.9,8.9,0,0,1,.53,3.12v.69a13.8,13.8,0,0,1-.39,3.35,6.62,6.62,0,0,1-1.71,3Z"/><path class="cls-1" d="M305.32,196.71a5.3,5.3,0,0,0-1.55-.56,8.93,8.93,0,0,0-1.87-.2,4.82,4.82,0,0,0-3.82,1.53,6.12,6.12,0,0,0-1.35,4.19v2a8,8,0,0,0,.2,1.81,4.46,4.46,0,0,0,.66,1.53,3.41,3.41,0,0,0,1.17,1.07,3.57,3.57,0,0,0,1.76.39,5.37,5.37,0,0,0,2.24-.61,8.46,8.46,0,0,0,2.57-2v-9.11Zm0-8.68,2.83-.79v19.47a7.49,7.49,0,0,0,.23,2,9.64,9.64,0,0,0,.72,1.76h-3a3.06,3.06,0,0,1-.39-.9,5.15,5.15,0,0,1-.2-1,9.48,9.48,0,0,1-1.45,1.18,7.08,7.08,0,0,1-1.58.81,5.48,5.48,0,0,1-1.94.35,7,7,0,0,1-3-.59,5.75,5.75,0,0,1-2.06-1.6,6.32,6.32,0,0,1-1.17-2.35,11,11,0,0,1-.36-2.86V201.9q0-4.21,2.07-6.3t6.18-2.09a8.7,8.7,0,0,1,3.16.63V188Z"/><path class="cls-1" d="M318,210.88q-3.16,0-4.56-1.51a6.48,6.48,0,0,1-1.4-4.54V194l2.83-.53v11.32a4.11,4.11,0,0,0,.76,2.78,3,3,0,0,0,2.37.84,5.06,5.06,0,0,0,2.19-.61,8.74,8.74,0,0,0,2.52-2V194l2.83-.53v13.19a7.49,7.49,0,0,0,.23,2,9.64,9.64,0,0,0,.72,1.76h-3a3.05,3.05,0,0,1-.39-.9,5.17,5.17,0,0,1-.2-1,8.27,8.27,0,0,1-1.41,1.18,7.3,7.3,0,0,1-1.55.81,5.22,5.22,0,0,1-1.91.35Z"/><path class="cls-1" d="M337.49,193.52a8.51,8.51,0,0,1,2.93.53,6.75,6.75,0,0,1,2.5,1.58l-1.74,1.71a6.21,6.21,0,0,0-1.6-1,6.27,6.27,0,0,0-4.29,0,4.39,4.39,0,0,0-1.64,1.13,5.11,5.11,0,0,0-1.09,1.91,7.33,7.33,0,0,0-.36,2.27v.53a9.74,9.74,0,0,0,.39,2.78,5,5,0,0,0,1.32,2.22,4.71,4.71,0,0,0,1.46.94,5.21,5.21,0,0,0,2,.35,7.31,7.31,0,0,0,2.09-.33A3.54,3.54,0,0,0,341.2,207l1.74,1.68a6.47,6.47,0,0,1-2.55,1.68,8.92,8.92,0,0,1-3,.53,10.32,10.32,0,0,1-2.75-.39,6.71,6.71,0,0,1-2.48-1.25,6.57,6.57,0,0,1-1.46-1.66,6.84,6.84,0,0,1-.84-2.19,11.12,11.12,0,0,1-.21-1.58q0-.79,0-1.58v-.63q0-.79,0-1.51a7.31,7.31,0,0,1,.23-1.4,6.85,6.85,0,0,1,.53-1.35,7.17,7.17,0,0,1,1-1.4,5.44,5.44,0,0,1,1.25-1.09,7.77,7.77,0,0,1,1.55-.76,10.21,10.21,0,0,1,3.36-.59Z"/><path class="cls-1" d="M347,196.11h-1.87v-2.2H347v-3.55l2.83-.79v4.34h3l-.69,2.2h-2.34v10.36a1.77,1.77,0,0,0,2,2H353v2.07a7.26,7.26,0,0,1-1,.28,4.43,4.43,0,0,1-.87.08,5.13,5.13,0,0,1-1.69-.28,3.84,3.84,0,0,1-1.4-.84,3.34,3.34,0,0,1-.87-1.4,6,6,0,0,1-.28-1.89V196.11Z"/><path class="cls-1" d="M355.84,210.49V193.91h2.83v16.58Zm1.38-23.25a1.55,1.55,0,0,1,1.12.44,1.55,1.55,0,0,1,0,2.2,1.63,1.63,0,0,1-2.24,0,1.55,1.55,0,0,1,0-2.2,1.55,1.55,0,0,1,1.12-.44Z"/><path class="cls-1" d="M375,202.2v-.66a5.94,5.94,0,0,0-1.25-3.91,4.52,4.52,0,0,0-1.64-1.23,6.07,6.07,0,0,0-4.47,0,4.43,4.43,0,0,0-1.61,1.17,6,6,0,0,0-1.32,4v.76a10.56,10.56,0,0,0,.3,2.57,5,5,0,0,0,1,2,3.88,3.88,0,0,0,1.53,1.12,5.89,5.89,0,0,0,2.29.39,5.66,5.66,0,0,0,2.14-.36,4.29,4.29,0,0,0,1.51-1,4.56,4.56,0,0,0,1.18-2.14,11,11,0,0,0,.33-2.73Zm.53,6.32a7.25,7.25,0,0,1-2.6,1.79,8.38,8.38,0,0,1-3.12.58,8.25,8.25,0,0,1-3.09-.59,7.56,7.56,0,0,1-2.63-1.78,5.91,5.91,0,0,1-1.63-2.89,15.23,15.23,0,0,1-.38-3.42v-.62a11.7,11.7,0,0,1,.43-3.06,6.75,6.75,0,0,1,1.68-2.7,7.32,7.32,0,0,1,2.57-1.74,8.24,8.24,0,0,1,3.06-.56,8.33,8.33,0,0,1,3,.54,7.36,7.36,0,0,1,2.55,1.69,7.55,7.55,0,0,1,1.71,2.63,8.9,8.9,0,0,1,.53,3.12v.69a13.8,13.8,0,0,1-.39,3.35,6.62,6.62,0,0,1-1.71,3Z"/><path class="cls-1" d="M388.44,196a5.71,5.71,0,0,0-2.61.58,5.9,5.9,0,0,0-1.6,1.07v12.89H381.4V198a7.18,7.18,0,0,0-.76-3.26l2.6-1.22a9,9,0,0,1,.46.92,6.2,6.2,0,0,1,.33,1h.2a5,5,0,0,1,1.92-1.4,5.84,5.84,0,0,1,2.35-.54,7.3,7.3,0,0,1,2.71.48,5.78,5.78,0,0,1,2,1.32,5.61,5.61,0,0,1,1.25,2,6.89,6.89,0,0,1,.43,2.45v10.76h-2.83V199.7a3.66,3.66,0,0,0-1-2.73,3.57,3.57,0,0,0-2.61-1Z"/><path class="cls-2" d="M91.65,103.9c-10.49-2.45-17.7.38-22.07,5.12-5.88,6.37-6.61,16.43-3.22,23.91.88,1.95,6.71,13.12,6.71,13.12s5.8,7.32,8.85,9.77,10.38,2.75,12.21,5.19S78.87,165.89,78,170.77s14.38,17,18,18.92c3.21,1.71,9.72,3.79,16.13,5.28A18,18,0,0,0,129.9,210.5h20.4a133.1,133.1,0,0,1-16.89,13.23l1.22-9.16s-1.38-3.47-8.09,7.21-21.17,7-21.17,7c1.92-7,13.3-26-7-17.16-3.39,1.48,1.32-2.72-2.76-7.78-3.77-4.69-16.18-9.7-18-12-5.8-7.32-10.07-14-10.07-14L66,185.11s-3.05-3.66-5.49-11.9a62.65,62.65,0,0,1-2.44-15.87s4,8.31-12.21,4.58c-6.58-1.52-15.32-9.79-21.17-18.8-4.74-7.3-11-14.68-10.73-22.67.2-5.39,3.86-9.43,7.53-13.51,3-3.29,5.29-7.25,10.78-7,10.34.41,18.23,9.75,17.86,11.05,0,0-.92-15.56,1.22-27.46s25.94-33,25.94-33l-1.83,8.54s24.72-24.41,33.26-31.43S137.15,13,137.15,13a31.21,31.21,0,0,0-3.66,11.29c-.61,6.1,14,22,14,22s0-4,.31-7,4.27-7.32,4.27-7.32,3.05,10.07,3.36,12.21,16.78,19.53,22.28,25c4.72,4.72,9.21,15.3,11.55,22.83H129.9a18,18,0,0,0-18,18v6.17c-3-2.34-14.81-11-20.27-12.23Zm-25.6-7.44-.31,2.14,10.38-5.49,19.23,1.22-4.58-8.24A20.16,20.16,0,0,0,80.7,84.26c-5.19.61-14.65,12.21-14.65,12.21ZM50.18,128.81l1.53,10.07-10.78-10.5-12.71-3.23L34.62,123l-8.24-13.43c1.83,2.44,10.38,2.44,13.73,3.36s7.63,10.68,10.07,15.87ZM77.65,121s7.32-6.41,9.16-6.41,4.88,4,7.32,6.71,4.27,3.36,6.1,5.19,8.85,3.36,10.68,4.27a4.37,4.37,0,0,0,1.2.35V143.4c-2.3,2.24-5.09,4.2-7.61,4.48-5.49.61-21.67-4-21.67-4L103,141.17s-3.66-2.75-6.1-2.75-12.51-1.83-12.51-1.83l-3.66-3.05-3.05-6.1V121Zm11,4.58s-.31,5.8,2.14,7.93,9.16-1.22,9.16-1.22l-11.29-6.71Zm.92,44.55c-.19-.78,11.92,1.58,22.57,3.23v11.8c-10.75-4-22.57-15-22.57-15Zm17-20L98.4,153l6.48.46a5.82,5.82,0,0,0,2.78,3.94c2.32,1.16,3.94-5.09,3.94-5.09l-5.09-2.08Zm-11,21.71,4.67,5.8-.17-4.3,3.4,1.39-.66,3.8,5.72,2.75s1.53-7.1,1.07-7.17l-14-2.26Zm-24-6.15C77,159.63,85,160.85,85,160.85l-13.43-4.27v9.16Zm100.68-43.63a29,29,0,1,1-29,29,29,29,0,0,1,29-29ZM214.77,97.7H130a12.44,12.44,0,0,0-12.4,12.4v82.29a12.44,12.44,0,0,0,12.4,12.4h84.73a12.44,12.44,0,0,0,12.4-12.4V110.09a12.44,12.44,0,0,0-12.4-12.4Zm-71.25,15.16h57.77a10.36,10.36,0,0,1,10.33,10.33v56.1a10.36,10.36,0,0,1-10.33,10.33H143.52a10.36,10.36,0,0,1-10.33-10.33v-56.1a10.36,10.36,0,0,1,10.33-10.33Zm43,15.62a5.13,5.13,0,1,1-5.13,5.13,5.13,5.13,0,0,1,5.13-5.13ZM160,153.58a9.72,9.72,0,1,1-9.72,9.72,9.72,9.72,0,0,1,9.72-9.72ZM202.62,48.24a16,16,0,1,1-16,16,16,16,0,0,1,16-16Z"/></svg>
